<svg xmlns="http://www.w3.org/2000/svg" viewBox="0 0 200 200"><defs><radialGradient id="ghk" cx="45%" cy="32%" r="90%"><stop offset="0%" stop-color="#87A84E"/><stop offset="60%" stop-color="#5E7A38"/><stop offset="100%" stop-color="#3C5326"/></radialGradient></defs><path d="M66 118 L56 164 Q46 176 34 162 L44 118 Z" fill="#5E2E6E" stroke="#2A2119" stroke-width="5" stroke-linejoin="round"/><path d="M134 118 L144 164 Q154 176 166 162 L156 118 Z" fill="#5E2E6E" stroke="#2A2119" stroke-width="5" stroke-linejoin="round"/><path d="M72 112 L64 162 Q64 184 100 184 Q136 184 136 162 L128 112 Q114 126 100 126 Q86 126 72 112 Z" fill="url(#ghk)" stroke="#2A2119" stroke-width="6" stroke-linejoin="round"/><path d="M66 146 Q100 156 134 146 L134 158 Q100 168 66 158 Z" fill="#E3B23C" stroke="#2A2119" stroke-width="3"/><circle cx="100" cy="150" r="6" fill="#E3B23C" stroke="#2A2119" stroke-width="3"/><path d="M58 64 Q54 22 100 18 Q146 22 142 64 Q150 102 130 126 Q114 142 100 142 Q86 142 70 126 Q50 102 58 64 Z" fill="url(#ghk)" stroke="#2A2119" stroke-width="6" stroke-linejoin="round"/><ellipse cx="100" cy="106" rx="10" ry="8" fill="#3C5326" stroke="#2A2119" stroke-width="4"/><path d="M86 128 Q100 148 114 128 Q100 142 86 128 Z" fill="#E8E0CC" stroke="#2A2119" stroke-width="3"/><ellipse cx="100" cy="180" rx="60" ry="6" fill="#2A2119" opacity=".25"/><g transform="rotate(0 100 44)"><path d="M58 44 L66 12 L80 28 L98 6 L116 28 L130 12 L138 44 Q98 56 58 44 Z" fill="#E3B23C" stroke="#2A2119" stroke-width="4" stroke-linejoin="round"/><circle cx="80" cy="26" r="4" fill="#7A2E5E" stroke="#2A2119" stroke-width="2.5"/><circle cx="98" cy="16" r="6" fill="#C23A2B" stroke="#2A2119" stroke-width="3"/><circle cx="116" cy="26" r="4" fill="#7A2E5E" stroke="#2A2119" stroke-width="2.5"/></g><path d="M72 83 L85 88 M127 83 L114 88" stroke="#2A2119" stroke-width="5" stroke-linecap="round"/><ellipse cx="80" cy="92" rx="5.5" ry="5.5" fill="#FFF8EC" stroke="#2A2119" stroke-width="4"/><circle cx="81.65" cy="93.65" r="3.0250000000000004" fill="#2A2119"/><ellipse cx="120" cy="92" rx="5.5" ry="5.5" fill="#FFF8EC" stroke="#2A2119" stroke-width="4"/><circle cx="121.65" cy="93.65" r="3.0250000000000004" fill="#2A2119"/><path d="M85.6 126 Q100 150.2 114.4 126 Z" fill="#6B1F1A" stroke="#2A2119" stroke-width="4" stroke-linejoin="round"/><path d="M91 132.6 L94.6 143.6 M98.2 134.8 L100 146.9 M101.8 134.8 L104.05 145.8 M105.4 132.6 L109 141.4" stroke="#FFF8EC" stroke-width="3.5" stroke-linecap="round"/><g transform="rotate(-40 152 168)"><rect x="146" y="58" width="9" height="110" rx="4" fill="#B78B3C" stroke="#2A2119" stroke-width="4"/><circle cx="150" cy="54" r="12" fill="#5E2E6E" stroke="#2A2119" stroke-width="4"/><circle cx="150" cy="54" r="5" fill="#E3B23C"/></g></svg>