<svg xmlns="http://www.w3.org/2000/svg" viewBox="0 0 180 240"><defs><radialGradient id="wrb" cx="45%" cy="30%" r="85%"><stop offset="0%" stop-color="#F2DFAF"/><stop offset="55%" stop-color="#F2DFAF"/><stop offset="100%" stop-color="#C7AA72"/></radialGradient><linearGradient id="wrm" x1="0" y1="0" x2="0" y2="1"><stop offset="0%" stop-color="#E8BC55"/><stop offset="100%" stop-color="#B8821F"/></linearGradient></defs><ellipse cx="90" cy="228" rx="52" ry="7" fill="#0E1410" opacity=".4"/><g transform="rotate(6 90 205)"><path d="M90 6 Q136 12 148 60 Q136 92 118 108" fill="none" stroke="#F5E0A0" stroke-width="10" opacity=".55" stroke-linecap="round"/><path d="M80 166 L74 196 Q72 204 84 204 L94 204 L96 172 Z" fill="#C8942B" stroke="#2A2119" stroke-width="5"/><path d="M100 166 L106 196 Q108 204 96 204 L86 204 L84 172 Z" fill="#C8942B" stroke="#2A2119" stroke-width="5"/><path d="M72 204 L64 210 Q62 216 74 216 L92 216 L94 204 Z" fill="#6E4A0E" stroke="#2A2119" stroke-width="4"/><path d="M108 204 L116 210 Q118 216 106 216 L88 216 L86 204 Z" fill="#6E4A0E" stroke="#2A2119" stroke-width="4"/><path d="M70 116 Q64 140 74 156 Q82 168 90 168 Q98 168 106 156 Q116 140 110 116 Q98 124 90 124 Q82 124 70 116 Z" fill="url(#wrm)" stroke="#2A2119" stroke-width="5" stroke-linejoin="round"/><path d="M90 124 L90 154" stroke="#8A5A12" stroke-width="3"/><ellipse cx="69" cy="120" rx="13" ry="10" fill="#D9A441" stroke="#2A2119" stroke-width="4"/><ellipse cx="111" cy="120" rx="13" ry="10" fill="#D9A441" stroke="#2A2119" stroke-width="4"/><path d="M72 150 Q90 144 108 150 L106 156 Q90 162 74 156 Z" fill="#6E4A0E" stroke="#2A2119" stroke-width="3.5"/><rect x="84" y="146" width="12" height="10" rx="2" fill="#F0C75E" stroke="#2A2119" stroke-width="3"/><path d="M60 52 Q52 24 90 16 Q128 24 120 52 Q132 70 128 92 Q120 112 90 114 Q60 112 52 92 Q48 70 60 52 Z" fill="url(#wrm)" stroke="#2A2119" stroke-width="6" stroke-linejoin="round"/><path d="M76 70 L84 78 M84 70 L76 78" stroke="#2A2119" stroke-width="4" stroke-linecap="round"/><path d="M94 70 L102 78 M102 70 L94 78" stroke="#2A2119" stroke-width="3.5" stroke-linecap="round"/><path d="M90 16 L90 6 M82 10 L98 10" stroke="#F0C75E" stroke-width="3.5" stroke-linecap="round"/><path d="M72 122 L58 136 Q54 142 60 144 L74 132" fill="#D9A441" stroke="#2A2119" stroke-width="5" stroke-linejoin="round"/><circle cx="60" cy="144" r="6" fill="#C9A77E" stroke="#2A2119" stroke-width="3"/><path d="M108 122 L126 150 Q130 156 124 158 L108 138" fill="#D9A441" stroke="#2A2119" stroke-width="5" stroke-linejoin="round"/><circle cx="124" cy="158" r="6" fill="#C9A77E" stroke="#2A2119" stroke-width="3"/></g></svg>