<svg xmlns="http://www.w3.org/2000/svg" viewBox="0 0 180 240"><defs><radialGradient id="knb" cx="45%" cy="30%" r="85%"><stop offset="0%" stop-color="#F2DFAF"/><stop offset="55%" stop-color="#F2DFAF"/><stop offset="100%" stop-color="#C7AA72"/></radialGradient><linearGradient id="knm" x1="0" y1="0" x2="0" y2="1"><stop offset="0%" stop-color="#CDD3DB"/><stop offset="100%" stop-color="#8E96A3"/></linearGradient></defs><ellipse cx="90" cy="228" rx="52" ry="7" fill="#0E1410" opacity=".4"/><g transform="rotate(-12 90 205)"><path d="M64 74 Q42 108 36 156 Q34 172 48 166 Q62 156 76 130 L72 72 Z" fill="#8A3026" stroke="#2A2119" stroke-width="5" stroke-linejoin="round"/><path d="M80 166 L74 196 Q72 204 84 204 L94 204 L96 172 Z" fill="#A9B1BC" stroke="#2A2119" stroke-width="5"/><path d="M100 166 L106 196 Q108 204 96 204 L86 204 L84 172 Z" fill="#A9B1BC" stroke="#2A2119" stroke-width="5"/><path d="M72 204 L64 210 Q62 216 74 216 L92 216 L94 204 Z" fill="#4A5058" stroke="#2A2119" stroke-width="4"/><path d="M108 204 L116 210 Q118 216 106 216 L88 216 L86 204 Z" fill="#4A5058" stroke="#2A2119" stroke-width="4"/><path d="M70 116 Q64 140 74 156 Q82 168 90 168 Q98 168 106 156 Q116 140 110 116 Q98 124 90 124 Q82 124 70 116 Z" fill="url(#knm)" stroke="#2A2119" stroke-width="5" stroke-linejoin="round"/><path d="M90 124 L90 152" stroke="#6E7682" stroke-width="3"/><ellipse cx="70" cy="120" rx="12" ry="9" fill="#B7BEC8" stroke="#2A2119" stroke-width="4"/><ellipse cx="110" cy="120" rx="12" ry="9" fill="#B7BEC8" stroke="#2A2119" stroke-width="4"/><path d="M72 150 Q90 144 108 150 L106 156 Q90 162 74 156 Z" fill="#4A5058" stroke="#2A2119" stroke-width="3.5"/><rect x="84" y="146" width="12" height="10" rx="2" fill="#D9A441" stroke="#2A2119" stroke-width="3"/><path d="M60 52 Q52 24 90 16 Q128 24 120 52 Q132 70 128 92 Q120 112 90 114 Q60 112 52 92 Q48 70 60 52 Z" fill="url(#knm)" stroke="#2A2119" stroke-width="6" stroke-linejoin="round"/><path d="M74 76 L106 76" stroke="#2A2119" stroke-width="4" stroke-linecap="round"/><path d="M90 76 L90 92" stroke="#2A2119" stroke-width="3.5" stroke-linecap="round"/><path d="M90 18 Q84 6 90 -2 Q96 8 90 18 Z" fill="#B03A2E" stroke="#2A2119" stroke-width="3"/><path d="M72 122 L56 138 Q52 144 58 146 L74 132" fill="#B7BEC8" stroke="#2A2119" stroke-width="5" stroke-linejoin="round"/><circle cx="58" cy="146" r="6" fill="#C9A77E" stroke="#2A2119" stroke-width="3"/><path d="M108 122 L124 154 Q128 162 120 164 L106 140" fill="#B7BEC8" stroke="#2A2119" stroke-width="5" stroke-linejoin="round"/><circle cx="120" cy="164" r="6" fill="#C9A77E" stroke="#2A2119" stroke-width="3"/></g><path d="M150 200 L118 226 L112 220 L144 194 Z" fill="#B7C0CC" stroke="#2A2119" stroke-width="4" transform="rotate(12 131 213)"/></svg>