<svg xmlns="http://www.w3.org/2000/svg" viewBox="0 0 180 240"><defs><radialGradient id="mgb" cx="45%" cy="30%" r="85%"><stop offset="0%" stop-color="#F2DFAF"/><stop offset="55%" stop-color="#F2DFAF"/><stop offset="100%" stop-color="#C7AA72"/></radialGradient><linearGradient id="mgm" x1="0" y1="0" x2="0" y2="1"><stop offset="0%" stop-color="#6A4C9E"/><stop offset="100%" stop-color="#3E2A63"/></linearGradient></defs><ellipse cx="90" cy="228" rx="52" ry="7" fill="#0E1410" opacity=".4"/><path d="M80 168 L74 198 Q72 206 84 206 L94 206 L96 174 Z" fill="#3E2A63" stroke="#2A2119" stroke-width="5"/><path d="M100 168 L106 198 Q108 206 96 206 L86 206 L84 174 Z" fill="#3E2A63" stroke="#2A2119" stroke-width="5"/><path d="M72 206 L64 212 Q62 218 74 218 L92 218 L94 206 Z" fill="#2A1C46" stroke="#2A2119" stroke-width="4"/><path d="M108 206 L116 212 Q118 218 106 218 L88 218 L86 206 Z" fill="#2A1C46" stroke="#2A2119" stroke-width="4"/><path d="M70 118 Q64 142 74 158 Q82 170 90 170 Q98 170 106 158 Q116 142 110 118 Q98 126 90 126 Q82 126 70 118 Z" fill="url(#mgm)" stroke="#2A2119" stroke-width="5" stroke-linejoin="round"/><path d="M72 152 Q90 146 108 152 L106 158 Q90 164 74 158 Z" fill="#2A1C46" stroke="#2A2119" stroke-width="3.5"/><rect x="84" y="148" width="12" height="10" rx="2" fill="#E8BC55" stroke="#2A2119" stroke-width="3"/><ellipse cx="90" cy="82" rx="20" ry="16" fill="url(#mgb)" stroke="#2A2119" stroke-width="4"/><path d="M80 76 Q84 72 88 76" fill="none" stroke="#2A2119" stroke-width="3" stroke-linecap="round"/><path d="M92 76 Q96 72 100 76" fill="none" stroke="#2A2119" stroke-width="3" stroke-linecap="round"/><path d="M85 88 Q90 91 95 88" fill="none" stroke="#2A2119" stroke-width="3" stroke-linecap="round"/><path d="M68 52 L90 6 L112 52 Q90 62 68 52 Z" fill="url(#mgm)" stroke="#2A2119" stroke-width="5" stroke-linejoin="round"/><path d="M58 58 Q90 68 122 58 L120 66 Q90 76 60 66 Z" fill="#3E2A63" stroke="#2A2119" stroke-width="4"/><path d="M80 26 Q90 20 100 26" fill="none" stroke="#E8BC55" stroke-width="3" stroke-linecap="round"/><circle cx="90" cy="12" r="3.5" fill="#E8BC55" stroke="#2A2119" stroke-width="2.5"/><path d="M72 124 L58 140 Q54 146 60 148 L74 134" fill="#6A4C9E" stroke="#2A2119" stroke-width="5" stroke-linejoin="round"/><circle cx="60" cy="148" r="6" fill="#C9A77E" stroke="#2A2119" stroke-width="3"/><path d="M108 124 L136 96 Q142 90 148 96 L124 120" fill="#6A4C9E" stroke="#2A2119" stroke-width="5" stroke-linejoin="round"/><path d="M146 92 L160 30 L166 32 L154 96 Z" fill="#8A7445" stroke="#2A2119" stroke-width="4"/><circle cx="166" cy="24" r="9" fill="#D8CCF2" stroke="#2A2119" stroke-width="3"/><path d="M166 8 L166 4 M166 40 L166 44 M150 24 L146 24 M182 24 L186 24" stroke="#D8CCF2" stroke-width="3" stroke-linecap="round"/><path d="M36 26 Q64 14 92 26" stroke="#FFF7DD" stroke-width="7" fill="none" opacity=".75" stroke-linecap="round"/><path d="M40 40 Q70 28 96 42" stroke="#FFF7DD" stroke-width="4.5" fill="none" opacity=".5" stroke-linecap="round"/></svg>