<svg xmlns="http://www.w3.org/2000/svg" viewBox="0 0 180 240"><defs><radialGradient id="scb" cx="45%" cy="30%" r="85%"><stop offset="0%" stop-color="#F2DFAF"/><stop offset="55%" stop-color="#F2DFAF"/><stop offset="100%" stop-color="#C7AA72"/></radialGradient><linearGradient id="scm" x1="0" y1="0" x2="0" y2="1"><stop offset="0%" stop-color="#EDEAE0"/><stop offset="100%" stop-color="#C9C4B4"/></linearGradient></defs><ellipse cx="90" cy="228" rx="52" ry="7" fill="#0E1410" opacity=".4"/><g transform="rotate(-12 90 205)"><path d="M80 168 L74 198 Q72 206 84 206 L94 206 L96 174 Z" fill="#C9C4B4" stroke="#2A2119" stroke-width="5"/><path d="M100 168 L106 198 Q108 206 96 206 L86 206 L84 174 Z" fill="#C9C4B4" stroke="#2A2119" stroke-width="5"/><path d="M72 206 L64 212 Q62 218 74 218 L92 218 L94 206 Z" fill="#3E4660" stroke="#2A2119" stroke-width="4"/><path d="M108 206 L116 212 Q118 218 106 218 L88 218 L86 206 Z" fill="#3E4660" stroke="#2A2119" stroke-width="4"/><path d="M70 118 Q64 142 74 158 Q82 170 90 170 Q98 170 106 158 Q116 142 110 118 Q98 126 90 126 Q82 126 70 118 Z" fill="url(#scm)" stroke="#2A2119" stroke-width="5" stroke-linejoin="round"/><path d="M72 152 Q90 146 108 152 L106 158 Q90 164 74 158 Z" fill="#3E4660" stroke="#2A2119" stroke-width="3.5"/><rect x="84" y="148" width="12" height="10" rx="2" fill="#E8BC55" stroke="#2A2119" stroke-width="3"/><path d="M60 74 Q56 46 90 38 Q124 46 120 74 Q130 90 126 106 Q118 122 90 124 Q62 122 54 106 Q50 90 60 74 Z" fill="#8A5A32" stroke="#2A2119" stroke-width="5" stroke-linejoin="round"/><ellipse cx="90" cy="78" rx="20" ry="16" fill="url(#scb)" stroke="#2A2119" stroke-width="4"/><ellipse cx="82" cy="76" rx="4" ry="5" fill="#FFF8EC" stroke="#2A2119" stroke-width="3"/><ellipse cx="98" cy="76" rx="4" ry="5" fill="#FFF8EC" stroke="#2A2119" stroke-width="3"/><circle cx="83" cy="77" r="2" fill="#2A2119"/><circle cx="97" cy="77" r="2" fill="#2A2119"/><path d="M85 86 Q90 89 95 86" fill="none" stroke="#2A2119" stroke-width="3" stroke-linecap="round"/><rect x="62" y="44" width="56" height="26" rx="8" fill="#2E466B" stroke="#2A2119" stroke-width="4"/><path d="M78 44 L90 26 L102 44 Z" fill="#2E466B" stroke="#2A2119" stroke-width="4" stroke-linejoin="round"/><path d="M88 20 L92 20" stroke="#E8BC55" stroke-width="3" stroke-linecap="round"/><path d="M72 124 L56 140 Q52 146 58 148 L74 134" fill="#EDEAE0" stroke="#2A2119" stroke-width="5" stroke-linejoin="round"/><circle cx="58" cy="148" r="6" fill="#C9A77E" stroke="#2A2119" stroke-width="3"/><path d="M108 124 L122 156 Q126 164 118 166 L104 142" fill="#EDEAE0" stroke="#2A2119" stroke-width="5" stroke-linejoin="round"/><circle cx="118" cy="166" r="6" fill="#C9A77E" stroke="#2A2119" stroke-width="3"/></g><path d="M62 216 L110 204 L112 210 L64 222 Z" fill="#C7AA72" stroke="#2A2119" stroke-width="3.5"/></svg>