<svg xmlns="http://www.w3.org/2000/svg" viewBox="0 0 640 220">
  <rect width="640" height="220" fill="#D8CFC0"/>
  <path d="M0 120 Q160 100 320 120 Q480 100 640 120 L640 220 L0 220 Z" fill="#A9B89A" stroke="#2A2119" stroke-width="4" stroke-linejoin="round"/>
  <path d="M0 170 Q180 158 380 168 Q520 160 640 170 L640 220 L0 220 Z" fill="#8A9684" stroke="#2A2119" stroke-width="5" stroke-linejoin="round"/>
  <path d="M200 220 L180 84 L330 76 L360 220 Z" fill="#B8A88A" stroke="#2A2119" stroke-width="5" stroke-linejoin="round"/>
  <path d="M170 84 L180 76 L230 72 L230 84 Z" fill="#8A6D3F" stroke="#2A2119" stroke-width="4" stroke-linejoin="round"/>
  <path d="M190 76 L190 42 L220 38 L220 76 Z" fill="#8A3A2E" stroke="#2A2119" stroke-width="4" stroke-linejoin="round"/>
  <path d="M190 76 L220 76" stroke="#2A2119" stroke-width="4"/>
  <path d="M205 44 L205 70" stroke="#F0E3C4" stroke-width="4"/>
  <path d="M182 100 L218 100 M176 130 L224 130 M168 160 L232 160 M160 190 L240 190" stroke="#3E3E36" stroke-width="5" stroke-linecap="round"/>
  <rect x="240" y="40" width="120" height="28" rx="6" fill="#C94A3C" stroke="#2A2119" stroke-width="4"/>
  <path d="M254 48 L254 60 M264 48 L264 60 M274 48 L274 60" stroke="#F0E3C4" stroke-width="3"/>
  <path d="M420 96 L420 68 Q420 60 430 60 L446 52 Q456 48 462 56 L474 64 Q482 70 482 78 L482 96 Z" fill="#C9A86A" stroke="#2A2119" stroke-width="4" stroke-linejoin="round"/>
  <path d="M420 78 L482 78" stroke="#2A2119" stroke-width="4"/>
  <path d="M300 56 Q320 44 340 56 M120 56 Q140 44 160 56" stroke="#9BB98E" stroke-width="5" fill="none" stroke-linecap="round"/>
</svg>