<svg xmlns="http://www.w3.org/2000/svg" viewBox="0 0 200 200"><defs><radialGradient id="flm" cx="45%" cy="30%" r="90%"><stop offset="0%" stop-color="#F08A3C"/><stop offset="55%" stop-color="#C9501F"/><stop offset="100%" stop-color="#8A2E12"/></radialGradient></defs><path d="M48 66 L22 52 L40 78 L26 84 L46 96 Z" fill="#F08A3C" stroke="#2A2119" stroke-width="4" stroke-linejoin="round"/><path d="M152 66 L178 52 L160 78 L174 84 L154 96 Z" fill="#F08A3C" stroke="#2A2119" stroke-width="4" stroke-linejoin="round"/><path d="M74 116 L64 168 Q64 190 100 190 Q136 190 136 168 L126 116 Q113 130 100 130 Q87 130 74 116 Z" fill="url(#flm)" stroke="#2A2119" stroke-width="6" stroke-linejoin="round"/><path d="M100 116 L106 126 M94 126 L100 136 M106 132 L112 142" stroke="#F8D08A" stroke-width="3" stroke-linecap="round"/><path d="M62 70 Q58 28 100 24 Q142 28 138 70 Q146 104 128 128 Q112 144 100 144 Q88 144 72 128 Q54 104 62 70 Z" fill="url(#flm)" stroke="#2A2119" stroke-width="6" stroke-linejoin="round"/><path d="M62 42 Q44 22 48 -4 Q66 4 74 28 Z" fill="#C9501F" stroke="#2A2119" stroke-width="5" stroke-linejoin="round"/><path d="M138 42 Q156 22 152 -4 Q134 4 126 28 Z" fill="#C9501F" stroke="#2A2119" stroke-width="5" stroke-linejoin="round"/><path d="M100 20 Q96 2 102 -14 Q108 2 104 20 Z" fill="#F08A3C" stroke="#2A2119" stroke-width="4"/><ellipse cx="100" cy="108" rx="9" ry="7" fill="#8A2E12" stroke="#2A2119" stroke-width="4"/><ellipse cx="100" cy="186" rx="62" ry="6" fill="#2A2119" opacity=".25"/><g stroke="#2A2119" stroke-width="4" stroke-linecap="round"><path d="M75 83 L85 93 M85 83 L75 93"/><path d="M115 83 L125 93 M125 83 L115 93"/></g><path d="M78 130 Q100 142 122 130" fill="none" stroke="#2A2119" stroke-width="4" stroke-linecap="round"/><g transform="translate(150 122) rotate(70)"><circle cx="0" cy="0" r="15" fill="#F8D08A" stroke="#2A2119" stroke-width="4"/><circle cx="0" cy="0" r="6" fill="#F08A3C"/></g></svg>